<svg width="27" height="22" viewBox="0 0 27 22" fill="none" xmlns="http://www.w3.org/2000/svg">
<path d="M27 9.125C27 8.51562 26.4844 8 25.875 8H22.6875L17.6719 1.15625C17.2031 0.453125 16.2656 0.3125 15.6094 0.828125C14.9062 1.29688 14.7656 2.23438 15.2812 2.89062L18.9844 8H7.96875L11.6719 2.89062C12.1875 2.23438 12.0469 1.29688 11.3438 0.828125C10.6875 0.3125 9.75 0.453125 9.28125 1.15625L4.26562 8H1.125C0.46875 8 0 8.51562 0 9.125V9.875C0 10.5312 0.46875 11 1.125 11H1.5L2.71875 19.5781C2.85938 20.7031 3.79688 21.5 4.92188 21.5H22.0312C23.1562 21.5 24.0938 20.7031 24.2344 19.5781L25.5 11H25.875C26.4844 11 27 10.5312 27 9.875V9.125ZM14.625 17.375C14.625 18.0312 14.1094 18.5 13.5 18.5C12.8438 18.5 12.375 18.0312 12.375 17.375V12.125C12.375 11.5156 12.8438 11 13.5 11C14.1094 11 14.625 11.5156 14.625 12.125V17.375ZM19.875 17.375C19.875 18.0312 19.3594 18.5 18.75 18.5C18.0938 18.5 17.625 18.0312 17.625 17.375V12.125C17.625 11.5156 18.0938 11 18.75 11C19.3594 11 19.875 11.5156 19.875 12.125V17.375ZM9.375 17.375C9.375 18.0312 8.85938 18.5 8.25 18.5C7.59375 18.5 7.125 18.0312 7.125 17.375V12.125C7.125 11.5156 7.59375 11 8.25 11C8.85938 11 9.375 11.5156 9.375 12.125V17.375Z" fill="#235789"/>
</svg>
