<svg width="20" height="24" viewBox="0 0 20 24" fill="none" xmlns="http://www.w3.org/2000/svg">
<path d="M9.95312 0.75C9.8125 -0.234375 7.84375 -0.234375 7.70312 0.796875V7.40625C7.65625 7.54688 7 7.54688 6.95312 7.40625C6.90625 6.23438 6.625 0.890625 6.57812 0.75C6.4375 -0.234375 4.51562 -0.234375 4.375 0.75C4.32812 0.890625 4.04688 6.23438 4 7.40625C3.95312 7.54688 3.29688 7.54688 3.25 7.40625V0.796875C3.10938 -0.234375 1.14062 -0.234375 1 0.75C0.953125 0.9375 0.25 5.15625 0.25 6.75C0.25 9.23438 1.51562 10.9688 3.4375 11.6719L2.875 22.8281C2.82812 23.4844 3.34375 24 4 24H7C7.60938 24 8.125 23.4844 8.125 22.8281L7.51562 11.6719C9.4375 10.9688 10.75 9.23438 10.75 6.75C10.75 5.15625 10 0.9375 9.95312 0.75ZM15.5781 14.1094L14.875 22.7812C14.7812 23.4375 15.3438 24 16 24H18.625C19.2344 24 19.75 23.5312 19.75 22.875V1.125C19.75 0.515625 19.2344 0 18.625 0C14.7344 0 8.21875 8.39062 15.5781 14.1094Z" fill="#FF4B3E"/>
</svg>
