<svg width="30" height="22" viewBox="0 0 30 22" fill="none" xmlns="http://www.w3.org/2000/svg">
<path d="M4.875 3.5H2.625C1.96875 3.5 1.5 4.01562 1.5 4.625V9.5H0.375C0.140625 9.5 0 9.6875 0 9.875V12.125C0 12.3594 0.140625 12.5 0.375 12.5H1.5V17.375C1.5 18.0312 1.96875 18.5 2.625 18.5H4.875C5.48438 18.5 6 18.0312 6 17.375V4.625C6 4.01562 5.48438 3.5 4.875 3.5ZM29.625 9.5H28.5V4.625C28.5 4.01562 27.9844 3.5 27.375 3.5H25.125C24.4688 3.5 24 4.01562 24 4.625V17.375C24 18.0312 24.4688 18.5 25.125 18.5H27.375C27.9844 18.5 28.5 18.0312 28.5 17.375V12.5H29.625C29.8125 12.5 30 12.3594 30 12.125V9.875C30 9.6875 29.8125 9.5 29.625 9.5ZM21.375 0.5H19.125C18.4688 0.5 18 1.01562 18 1.625V9.5H12V1.625C12 1.01562 11.4844 0.5 10.875 0.5H8.625C7.96875 0.5 7.5 1.01562 7.5 1.625V20.375C7.5 21.0312 7.96875 21.5 8.625 21.5H10.875C11.4844 21.5 12 21.0312 12 20.375V12.5H18V20.375C18 21.0312 18.4688 21.5 19.125 21.5H21.375C21.9844 21.5 22.5 21.0312 22.5 20.375V1.625C22.5 1.01562 21.9844 0.5 21.375 0.5Z" fill="#F58F29"/>
</svg>
