<svg width="29" height="21" viewBox="0 0 29 21" fill="none" xmlns="http://www.w3.org/2000/svg">
<path d="M28.2891 6.125H25.0625L24.1328 3.88281C23.2031 1.53125 20.9609 0 18.4453 0H11.5C8.98438 0 6.74219 1.53125 5.8125 3.88281L4.88281 6.125H1.65625C1.21875 6.125 0.890625 6.5625 1 6.94531L1.32812 8.25781C1.38281 8.58594 1.65625 8.75 1.98438 8.75H3.07812C2.3125 9.40625 1.875 10.3359 1.875 11.375V14C1.875 14.9297 2.20312 15.6953 2.75 16.2969V19.25C2.75 20.2344 3.51562 21 4.5 21H6.25C7.17969 21 8 20.2344 8 19.25V17.5H22V19.25C22 20.2344 22.7656 21 23.75 21H25.5C26.4297 21 27.25 20.2344 27.25 19.25V16.2969C27.7422 15.6953 28.125 14.9297 28.125 14V11.375C28.125 10.3359 27.6328 9.40625 26.8672 8.75H28.0156C28.2891 8.75 28.5625 8.58594 28.6172 8.25781L28.9453 6.94531C29.0547 6.5625 28.7266 6.125 28.2891 6.125ZM9.03906 5.19531C9.47656 4.15625 10.4062 3.5 11.5 3.5H18.4453C19.5391 3.5 20.4688 4.15625 20.9062 5.19531L22 7.875H8L9.03906 5.19531ZM6.25 14C5.15625 14 4.5 13.3438 4.5 12.25C4.5 11.2109 5.15625 10.5 6.25 10.5C7.28906 10.5 8.875 12.0859 8.875 13.125C8.875 14.1641 7.28906 14 6.25 14ZM23.75 14C22.6562 14 21.125 14.1641 21.125 13.125C21.125 12.0859 22.6562 10.5 23.75 10.5C24.7891 10.5 25.5 11.2109 25.5 12.25C25.5 13.3438 24.7891 14 23.75 14Z" fill="#DB3069"/>
</svg>
