<svg width="25" height="21" viewBox="0 0 25 21" fill="none" xmlns="http://www.w3.org/2000/svg">
<path d="M23.9844 5.14844L21.4453 1.08594C21.2109 0.734375 20.8203 0.5 20.3906 0.5H4.60938C4.17969 0.5 3.75 0.734375 3.51562 1.08594L1.01562 5.14844C-0.3125 7.25781 0.859375 10.1484 3.28125 10.4609C3.47656 10.5 3.63281 10.5 3.82812 10.5C5 10.5 6.01562 9.99219 6.71875 9.21094C7.42188 9.99219 8.4375 10.5 9.60938 10.5C10.7422 10.5 11.7578 9.99219 12.4609 9.21094C13.1641 9.99219 14.2188 10.5 15.3516 10.5C16.5234 10.5 17.5391 9.99219 18.2422 9.21094C18.9453 9.99219 19.9609 10.5 21.1328 10.5C21.3281 10.5 21.4844 10.5 21.6797 10.4609C24.1016 10.1484 25.2734 7.25781 23.9844 5.14844ZM21.1328 11.75C20.7422 11.75 20.3516 11.7109 20 11.6328V15.5H5V11.6328C4.60938 11.7109 4.21875 11.75 3.82812 11.75C3.59375 11.75 3.35938 11.75 3.125 11.7109C2.89062 11.6719 2.69531 11.6328 2.5 11.5938V19.25C2.5 19.9531 3.04688 20.5 3.75 20.5H21.25C21.9141 20.5 22.5 19.9531 22.5 19.25V11.5938C22.2656 11.6328 22.0703 11.7109 21.8359 11.7109C21.6016 11.75 21.3672 11.75 21.1328 11.75Z" fill="#9BC53D"/>
</svg>
