<svg width="28" height="28" viewBox="0 0 28 28" fill="none" xmlns="http://www.w3.org/2000/svg">
<g clip-path="url(#clip0)">
<path d="M3 12.002C3.4216 12.002 3.81197 12.08 4.17111 12.2362C4.53025 12.3923 4.84255 12.6031 5.108 12.8686C5.37346 13.134 5.59206 13.4541 5.76383 13.8289C5.93559 14.2036 6.01366 14.594 5.99805 15C5.99805 15.4216 5.91998 15.812 5.76383 16.1711C5.60768 16.5303 5.39688 16.8426 5.13143 17.108C4.86597 17.3735 4.54587 17.5921 4.17111 17.7638C3.79636 17.9356 3.40599 18.0137 3 17.998C2.5784 17.998 2.18803 17.92 1.82889 17.7638C1.46975 17.6077 1.15745 17.3969 0.891998 17.1314C0.626545 16.866 0.407938 16.5459 0.236174 16.1711C0.0644112 15.7964 -0.013663 15.406 0.00195186 15C0.00195186 14.5784 0.080026 14.188 0.236174 13.8289C0.392323 13.4697 0.603123 13.1574 0.868575 12.892C1.13403 12.6265 1.45413 12.4079 1.82889 12.2362C2.20364 12.0644 2.59401 11.9863 3 12.002ZM13.1356 12.002C13.5572 12.002 13.9476 12.08 14.3067 12.2362C14.6659 12.3923 14.9782 12.6031 15.2436 12.8686C15.5091 13.134 15.7277 13.4541 15.8994 13.8289C16.0712 14.2036 16.1493 14.594 16.1337 15C16.1337 15.4216 16.0556 15.812 15.8994 16.1711C15.7433 16.5303 15.5325 16.8426 15.267 17.108C15.0016 17.3735 14.6815 17.5921 14.3067 17.7638C13.932 17.9356 13.5416 18.0137 13.1356 17.998C12.714 17.998 12.3236 17.92 11.9645 17.7638C11.6054 17.6077 11.2931 17.3969 11.0276 17.1314C10.7622 16.866 10.5435 16.5459 10.3718 16.1711C10.2 15.7964 10.1219 15.406 10.1376 15C10.1376 14.5784 10.2156 14.188 10.3718 13.8289C10.5279 13.4697 10.7387 13.1574 11.0042 12.892C11.2696 12.6265 11.5897 12.4079 11.9645 12.2362C12.3393 12.0644 12.7296 11.9863 13.1356 12.002ZM23.2712 12.002C23.6928 12.002 24.0832 12.08 24.4423 12.2362C24.8015 12.3923 25.1138 12.6031 25.3792 12.8686C25.6447 13.134 25.8633 13.4541 26.035 13.8289C26.2068 14.2036 26.2849 14.594 26.2693 15C26.2693 15.4216 26.1912 15.812 26.035 16.1711C25.8789 16.5303 25.6681 16.8426 25.4026 17.108C25.1372 17.3735 24.8171 17.5921 24.4423 17.7638C24.0676 17.9356 23.6772 18.0137 23.2712 17.998C22.8496 17.998 22.4592 17.92 22.1001 17.7638C21.741 17.6077 21.4287 17.3969 21.1632 17.1314C20.8978 16.866 20.6792 16.5459 20.5074 16.1711C20.3356 15.7964 20.2576 15.406 20.2732 15C20.2732 14.5784 20.3512 14.188 20.5074 13.8289C20.6635 13.4697 20.8743 13.1574 21.1398 12.892C21.4052 12.6265 21.7254 12.4079 22.1001 12.2362C22.4749 12.0644 22.8652 11.9863 23.2712 12.002Z" fill="#EEECE5"/>
</g>
<defs>
<clipPath id="clip0">
<rect width="28" height="28" fill="white"/>
</clipPath>
</defs>
</svg>
