<svg width="23" height="23" viewBox="0 0 23 23" fill="none" xmlns="http://www.w3.org/2000/svg">
<path d="M11.25 0.5C12.2812 0.5 13.2773 0.632813 14.2383 0.898438C15.1992 1.16406 16.0938 1.54297 16.9219 2.03516C17.75 2.52734 18.5078 3.11328 19.1953 3.79297C19.8828 4.47266 20.4688 5.23047 20.9531 6.06641C21.4375 6.90234 21.8164 7.80078 22.0898 8.76172C22.3633 9.72266 22.5 10.7188 22.5 11.75C22.5 12.7812 22.3672 13.7773 22.1016 14.7383C21.8359 15.6992 21.457 16.5938 20.9648 17.4219C20.4727 18.25 19.8867 19.0078 19.207 19.6953C18.5273 20.3828 17.7695 20.9688 16.9336 21.4531C16.0977 21.9375 15.1992 22.3164 14.2383 22.5898C13.2773 22.8633 12.2812 23 11.25 23C10.2188 23 9.22266 22.8672 8.26172 22.6016C7.30078 22.3359 6.40625 21.957 5.57812 21.4648C4.75 20.9727 3.99219 20.3867 3.30469 19.707C2.61719 19.0273 2.03125 18.2695 1.54688 17.4336C1.0625 16.5977 0.683594 15.7031 0.410156 14.75C0.136719 13.7969 0 12.7969 0 11.75C0 10.7188 0.132813 9.72266 0.398438 8.76172C0.664062 7.80078 1.04297 6.90625 1.53516 6.07812C2.02734 5.25 2.61328 4.49219 3.29297 3.80469C3.97266 3.11719 4.73047 2.53125 5.56641 2.04688C6.40234 1.5625 7.29687 1.18359 8.25 0.910156C9.20313 0.636719 10.2031 0.5 11.25 0.5ZM18 11H12V5H10.5V11H4.5V12.5H10.5V18.5H12V12.5H18V11Z" fill="#FF5F00"/>
</svg>
